<svg width="16" height="16" xmlns="http://www.w3.org/2000/svg" xmlns:xlink="http://www.w3.org/1999/xlink" xml:space="preserve" overflow="hidden"><defs><clipPath id="clip0"><rect x="0" y="0" width="16" height="16"/></clipPath></defs><g clip-path="url(#clip0)"><path d="M16 8C16 12.4183 12.4183 16 8 16 3.58172 16 -8.88178e-16 12.4183 -8.88178e-16 8-2.66454e-15 3.58172 3.58172 -8.88178e-16 8 -8.88178e-16 12.4183-2.66454e-15 16 3.58172 16 8Z" fill="#DE350B" fill-rule="evenodd"/><path d="M9.485 8.071 11.607 10.192C11.9977 10.5827 11.9977 11.2163 11.607 11.607 11.2163 11.9977 10.5827 11.9977 10.192 11.607L8.072 9.485 5.95 11.607C5.55926 11.9975 4.92597 11.9972 4.5355 11.6065 4.14503 11.2158 4.14526 10.5825 4.536 10.192L6.656 8.072 4.536 5.95C4.13875 5.56632 4.12774 4.93325 4.51142 4.536 4.8951 4.13875 5.52817 4.12774 5.92542 4.51142 5.93376 4.51947 5.94195 4.52767 5.95 4.536L8.071 6.656 10.192 4.536C10.5825 4.14526 11.2158 4.14503 11.6065 4.5355 11.9972 4.92596 11.9975 5.55926 11.607 5.95L9.485 8.07Z" fill="#FFFFFF" fill-rule="evenodd"/></g></svg>