<svg width="16" height="16" xmlns="http://www.w3.org/2000/svg" xmlns:xlink="http://www.w3.org/1999/xlink" xml:space="preserve" overflow="hidden"><defs><clipPath id="clip0"><rect x="0" y="0" width="16" height="16"/></clipPath></defs><g clip-path="url(#clip0)"><path d="M16 8C16 12.4183 12.4183 16 8 16 3.58172 16 -8.88178e-16 12.4183 -8.88178e-16 8-2.66454e-15 3.58172 3.58172 -8.88178e-16 8 -8.88178e-16 12.4183-2.66454e-15 16 3.58172 16 8Z" fill="#00875A" fill-rule="evenodd"/><path d="M10.242 4.474C10.4999 4.02278 11.0748 3.86608 11.526 4.124 11.9772 4.38192 12.1339 4.95678 11.876 5.408L8.11 11.996C7.85234 12.4473 7.27759 12.6043 6.82626 12.3467 6.72871 12.291 6.64192 12.2183 6.57 12.132L4.218 9.308C3.88525 8.9087 3.9392 8.31525 4.3385 7.9825 4.7378 7.64975 5.33125 7.7037 5.664 8.103L7.15 9.886 10.243 4.474Z" stroke="#FFFFFF" stroke-width="0.2" fill="#FFFFFF"/></g></svg>